REM DIRINDEX 1\2,1\3,1\4,1\5
REM DIRNAME folder01,folder02,folder03,folder04,folder05
TITLE ""
FILE "1Q_t_1460-1469.mp3" MP3
  TRACK 01 AUDIO
    TITLE "3:cjc004_5286"
    INDEX 01 00:00:00
  TRACK 02 AUDIO
    TITLE "0:"
    INDEX 01 00:00:68
  TRACK 03 AUDIO
    TITLE "4:cjc004_5287"
    INDEX 01 00:01:26
  TRACK 04 AUDIO
    TITLE "0:"
    INDEX 01 00:02:69
  TRACK 05 AUDIO
    TITLE "5:cjc004_5288"
    INDEX 01 00:03:23
  TRACK 06 AUDIO
    TITLE "0:"
    INDEX 01 00:07:29
  TRACK 07 AUDIO
    TITLE "3:cjc004_5289"
    INDEX 01 00:08:19
  TRACK 08 AUDIO
    TITLE "0:"
    INDEX 01 00:09:14
  TRACK 09 AUDIO
    TITLE "4:cjc004_5290"
    INDEX 01 00:09:47
  TRACK 10 AUDIO
    TITLE "0:"
    INDEX 01 00:10:63
  TRACK 11 AUDIO
    TITLE "5:cjc004_5291"
    INDEX 01 00:11:19
  TRACK 12 AUDIO
    TITLE "0:"
    INDEX 01 00:15:15
  TRACK 13 AUDIO
    TITLE "3:cjc004_5292"
    INDEX 01 00:16:00
  TRACK 14 AUDIO
    TITLE "0:"
    INDEX 01 00:17:00
  TRACK 15 AUDIO
    TITLE "4:cjc004_5293"
    INDEX 01 00:17:31
  TRACK 16 AUDIO
    TITLE "0:"
    INDEX 01 00:18:46
  TRACK 17 AUDIO
    TITLE "5:cjc004_5294"
    INDEX 01 00:19:03
  TRACK 18 AUDIO
    TITLE "0:"
    INDEX 01 00:24:18
  TRACK 19 AUDIO
    TITLE "3:cjc004_5295"
    INDEX 01 00:25:03
  TRACK 20 AUDIO
    TITLE "0:"
    INDEX 01 00:26:26
  TRACK 21 AUDIO
    TITLE "4:cjc004_5296"
    INDEX 01 00:26:60
  TRACK 22 AUDIO
    TITLE "0:"
    INDEX 01 00:28:25
  TRACK 23 AUDIO
    TITLE "5:cjc004_5297"
    INDEX 01 00:28:53
  TRACK 24 AUDIO
    TITLE "0:"
    INDEX 01 00:33:36
  TRACK 25 AUDIO
    TITLE "3:cjc004_5298"
    INDEX 01 00:34:16
  TRACK 26 AUDIO
    TITLE "0:"
    INDEX 01 00:35:27
  TRACK 27 AUDIO
    TITLE "4:cjc004_5299"
    INDEX 01 00:35:57
  TRACK 28 AUDIO
    TITLE "0:"
    INDEX 01 00:37:08
  TRACK 29 AUDIO
    TITLE "5:cjc004_5300"
    INDEX 01 00:37:36
  TRACK 30 AUDIO
    TITLE "0:"
    INDEX 01 00:41:02
  TRACK 31 AUDIO
    TITLE "3:cjc004_5301"
    INDEX 01 00:41:47
  TRACK 32 AUDIO
    TITLE "0:"
    INDEX 01 00:42:57
  TRACK 33 AUDIO
    TITLE "4:cjc004_5302"
    INDEX 01 00:43:07
  TRACK 34 AUDIO
    TITLE "0:"
    INDEX 01 00:44:22
  TRACK 35 AUDIO
    TITLE "5:cjc004_5303"
    INDEX 01 00:44:46
  TRACK 36 AUDIO
    TITLE "0:"
    INDEX 01 00:48:26
  TRACK 37 AUDIO
    TITLE "3:cjc004_5304"
    INDEX 01 00:49:04
  TRACK 38 AUDIO
    TITLE "0:"
    INDEX 01 00:50:09
  TRACK 39 AUDIO
    TITLE "4:cjc004_5305"
    INDEX 01 00:50:39
  TRACK 40 AUDIO
    TITLE "0:"
    INDEX 01 00:52:18
  TRACK 41 AUDIO
    TITLE "5:cjc004_5306"
    INDEX 01 00:52:39
  TRACK 42 AUDIO
    TITLE "0:"
    INDEX 01 00:56:29
  TRACK 43 AUDIO
    TITLE "3:cjc004_5307"
    INDEX 01 00:57:11
  TRACK 44 AUDIO
    TITLE "0:"
    INDEX 01 00:58:17
  TRACK 45 AUDIO
    TITLE "4:cjc004_5308"
    INDEX 01 00:58:44
  TRACK 46 AUDIO
    TITLE "0:"
    INDEX 01 00:59:59
  TRACK 47 AUDIO
    TITLE "5:cjc004_5309"
    INDEX 01 01:00:19
  TRACK 48 AUDIO
    TITLE "0:"
    INDEX 01 01:04:23
  TRACK 49 AUDIO
    TITLE "3:cjc004_5310"
    INDEX 01 01:05:05
  TRACK 50 AUDIO
    TITLE "0:"
    INDEX 01 01:06:18
  TRACK 51 AUDIO
    TITLE "4:cjc004_5311"
    INDEX 01 01:06:47
  TRACK 52 AUDIO
    TITLE "0:"
    INDEX 01 01:08:01
  TRACK 53 AUDIO
    TITLE "5:cjc004_5312"
    INDEX 01 01:08:29
  TRACK 54 AUDIO
    TITLE "0:"
    INDEX 01 01:13:00
  TRACK 55 AUDIO
    TITLE "3:cjc004_5313"
    INDEX 01 01:13:53
  TRACK 56 AUDIO
    TITLE "0:"
    INDEX 01 01:15:09
  TRACK 57 AUDIO
    TITLE "4:cjc004_5314"
    INDEX 01 01:15:39
  TRACK 58 AUDIO
    TITLE "0:"
    INDEX 01 01:17:12
  TRACK 59 AUDIO
    TITLE "5:cjc004_5315"
    INDEX 01 01:17:39
  TRACK 60 AUDIO
    TITLE "0:"
    INDEX 01 01:21:57
